<?xml version="1.0" encoding="utf-8"?>
<!-- Generator: Adobe Illustrator 17.0.0, SVG Export Plug-In . SVG Version: 6.00 Build 0)  -->
<!DOCTYPE svg PUBLIC "-//W3C//DTD SVG 1.1//EN" "http://www.w3.org/Graphics/SVG/1.1/DTD/svg11.dtd">
<svg version="1.1" id="圖層_1" xmlns="http://www.w3.org/2000/svg" xmlns:xlink="http://www.w3.org/1999/xlink" x="0px" y="0px"
	 width="24px" height="24px" viewBox="0 0 24 24" enable-background="new 0 0 24 24" xml:space="preserve">
<g>
	<path fill="#3984FF" d="M12.95,23h-1.889c-0.784,0-1.454-0.565-1.585-1.337l-0.281-1.337c-0.385-0.131-0.761-0.289-1.124-0.472
		l-1.124,0.798c-0.644,0.407-1.484,0.314-2.023-0.225l-1.349-1.292c-0.561-0.558-0.628-1.443-0.157-2.079l0.787-1.124
		c-0.195-0.362-0.365-0.737-0.506-1.124l-1.36-0.236C1.565,14.442,1,13.772,1,12.989v-1.888c0-0.783,0.565-1.453,1.338-1.584
		l1.315-0.225c0.133-0.42,0.299-0.83,0.495-1.225L3.349,6.944C2.933,6.302,3.027,5.456,3.574,4.921l1.293-1.348
		c0.566-0.543,1.438-0.608,2.08-0.157l1.124,0.787c0.362-0.195,0.738-0.364,1.124-0.506l0.236-1.36C9.563,1.565,10.232,1,11.016,1
		h1.889c0.784,0,1.454,0.565,1.585,1.337l0.225,1.315c0.425,0.14,0.838,0.313,1.237,0.517l1.124-0.787
		c0.641-0.428,1.495-0.348,2.046,0.191l1.315,1.315c0.562,0.543,0.648,1.414,0.202,2.056l-0.787,1.124
		c0.187,0.363,0.349,0.738,0.483,1.124l1.338,0.225C22.447,9.543,23.01,10.217,23,11v1.876c0,0.783-0.565,1.453-1.338,1.584
		l-1.338,0.225c-0.129,0.427-0.291,0.844-0.483,1.247l0.787,1.124c0.444,0.641,0.363,1.508-0.191,2.056l-1.315,1.315
		c-0.56,0.544-1.428,0.615-2.068,0.169l-1.124-0.787c-0.385,0.194-0.783,0.359-1.192,0.494l-0.225,1.337
		C14.392,22.413,13.732,22.987,12.95,23L12.95,23z M8.071,19.191l0.157,0.079c0.439,0.228,0.898,0.416,1.372,0.562h0.169
		l0.259,1.719c0.088,0.502,0.525,0.867,1.034,0.865h1.889c0.513,0.001,0.951-0.37,1.034-0.876l0.281-1.674h0.169
		c0.485-0.144,0.955-0.332,1.405-0.562l0.157-0.079l1.383,0.989c0.418,0.293,0.985,0.246,1.349-0.112l1.338-1.337
		c0.363-0.361,0.41-0.932,0.112-1.348l-1.001-1.483l0.079-0.157c0.239-0.453,0.435-0.927,0.585-1.416v-0.169l1.72-0.213
		c0.502-0.088,0.868-0.524,0.866-1.034v-1.888c0.012-0.513-0.358-0.955-0.866-1.034l-1.675-0.281V9.573
		c-0.148-0.485-0.34-0.955-0.573-1.404l-0.124-0.101l0.989-1.382c0.296-0.413,0.249-0.98-0.112-1.337l-1.338-1.393
		c-0.362-0.352-0.922-0.399-1.338-0.112l-1.383,0.989L15.85,4.697c-0.466-0.249-0.956-0.452-1.461-0.607H14.22l-0.281-1.64
		c-0.083-0.506-0.521-0.878-1.034-0.876h-1.877c-0.513-0.001-0.951,0.37-1.034,0.876L9.701,4.146H9.532
		C9.046,4.3,8.576,4.499,8.127,4.742L7.97,4.82L6.598,3.865C6.177,3.603,5.633,3.649,5.261,3.978L3.923,5.315
		C3.56,5.676,3.512,6.247,3.81,6.663L4.8,8.067L4.699,8.213C4.463,8.666,4.271,9.14,4.125,9.629v0.169l-1.675,0.27
		c-0.507,0.083-0.878,0.521-0.877,1.034v1.888c-0.001,0.513,0.37,0.951,0.877,1.034l1.697,0.292v0.169
		c0.153,0.486,0.353,0.956,0.596,1.404l0.079,0.157l-0.989,1.371c-0.296,0.413-0.249,0.98,0.112,1.337l1.338,1.337
		c0.362,0.352,0.922,0.399,1.338,0.112L8.071,19.191L8.071,19.191z"/>
	<circle fill="#3984FF" cx="12.006" cy="12" r="3.416"/>
	<path fill="#3984FF" d="M21.437,10.944l-1.877-0.315c-0.234-0.037-0.424-0.209-0.483-0.438c-0.168-0.659-0.429-1.291-0.776-1.876
		c-0.131-0.201-0.131-0.461,0-0.663l1.124-1.551c0.038-0.046,0.038-0.112,0-0.157l-1.349-1.337c-0.029-0.011-0.061-0.011-0.09,0
		h-0.067l-1.54,1.124c-0.202,0.131-0.462,0.131-0.663,0c-0.6-0.353-1.247-0.618-1.922-0.787c-0.232-0.058-0.408-0.248-0.45-0.483
		l-0.315-1.865c-0.006-0.058-0.054-0.101-0.112-0.101h-1.889c-0.058,0-0.107,0.044-0.112,0.101l-0.326,1.899
		c-0.042,0.231-0.212,0.419-0.438,0.483C9.49,5.148,8.858,5.413,8.273,5.764c-0.202,0.129-0.461,0.129-0.663,0L6.07,4.64H6.003
		c-0.029-0.013-0.061-0.013-0.09,0L4.586,5.966c-0.038,0.046-0.038,0.112,0,0.157L5.71,7.685c0.129,0.198,0.129,0.454,0,0.652
		c-0.343,0.586-0.6,1.218-0.764,1.876c-0.058,0.232-0.248,0.408-0.483,0.449l-1.866,0.315c-0.058,0.006-0.101,0.054-0.101,0.112
		v1.888c0,0.058,0.044,0.107,0.101,0.112l1.9,0.326c0.231,0.042,0.419,0.212,0.483,0.438c0.171,0.66,0.436,1.292,0.787,1.876
		c0.129,0.202,0.129,0.461,0,0.663l-1.124,1.539c-0.038,0.046-0.038,0.112,0,0.157l1.338,1.337c0.029,0.011,0.061,0.011,0.09,0
		h0.067L7.7,18.303c0.106-0.083,0.237-0.126,0.371-0.124c0.106,0,0.211,0.027,0.304,0.079c0.575,0.331,1.191,0.585,1.832,0.753
		c0.229,0.06,0.401,0.249,0.438,0.483l0.315,1.876c0.006,0.058,0.054,0.101,0.112,0.101h1.889c0.058,0,0.107-0.044,0.112-0.101
		l0.315-1.876c0.037-0.234,0.209-0.424,0.438-0.483c0.659-0.168,1.292-0.429,1.877-0.775c0.202-0.131,0.462-0.131,0.663,0
		l1.551,1.124h0.067c0.029,0.013,0.061,0.013,0.09,0l1.338-1.337c0.038-0.046,0.038-0.112,0-0.157l-1.124-1.562
		c-0.131-0.201-0.131-0.461,0-0.663c0.346-0.586,0.607-1.217,0.776-1.876c0.06-0.229,0.249-0.401,0.483-0.438l1.877-0.315
		c0.058-0.006,0.101-0.054,0.101-0.112v-1.843C21.528,11.002,21.491,10.955,21.437,10.944L21.437,10.944z M12.006,16.618
		c-2.558,0-4.632-2.073-4.632-4.629S9.448,7.36,12.006,7.36s4.632,2.073,4.632,4.629S14.564,16.618,12.006,16.618z"/>
</g>
</svg>
