<?xml version="1.0" encoding="utf-8"?>
<!-- Generator: Adobe Illustrator 17.0.0, SVG Export Plug-In . SVG Version: 6.00 Build 0)  -->
<!DOCTYPE svg PUBLIC "-//W3C//DTD SVG 1.1//EN" "http://www.w3.org/Graphics/SVG/1.1/DTD/svg11.dtd">
<svg version="1.1" id="圖層_1" xmlns="http://www.w3.org/2000/svg" xmlns:xlink="http://www.w3.org/1999/xlink" x="0px" y="0px"
	 width="24px" height="24px" viewBox="0 0 24 24" enable-background="new 0 0 24 24" xml:space="preserve">
<path fill="#3984FF" d="M22.982,13.046c0.041-2.48-0.599-4.924-1.851-7.066c-0.121-0.179-0.269-0.338-0.44-0.47
	c-0.888-0.635-2.014-0.837-3.068-0.552c-0.149,0.07-0.281,0.171-0.389,0.297l-0.849,1.022c-0.312,0.376-0.77,0.599-1.258,0.614
	h-6.37c-0.47,0.006-0.922-0.182-1.248-0.522L6.662,5.346C6.555,5.22,6.423,5.119,6.273,5.05c-0.296-0.106-0.606-0.172-0.92-0.194
	C4.596,4.862,3.858,5.097,3.236,5.53c-0.178,0.131-0.333,0.29-0.46,0.47c-1.22,2.144-1.831,4.58-1.769,7.045
	c-0.092,5.338,0.695,5.849,2.045,6.053s2.618-2.505,3.109-3.528l0.082-0.153c0.196-0.373,0.48-0.693,0.828-0.931
	c1.489-0.717,3.135-1.047,4.786-0.961h0.297c1.663-0.07,3.316,0.281,4.806,1.023c0.349,0.237,0.633,0.557,0.828,0.931l0.082,0.153
	c0.532,1.023,1.963,3.702,3.139,3.528S23.145,18.384,22.982,13.046L22.982,13.046z M7.398,11.573c0,0.107-0.087,0.194-0.194,0.194
	H6.048v1.166c0,0.107-0.087,0.194-0.194,0.194H4.699c-0.107,0-0.194-0.087-0.194-0.194v-1.166H3.308
	c-0.107,0-0.194-0.087-0.194-0.194v-1.115c-0.023-0.105,0.044-0.208,0.149-0.231c0.015-0.003,0.03-0.005,0.045-0.004h1.196V9.048
	c-0.058-0.09-0.031-0.211,0.059-0.268c0.04-0.026,0.088-0.036,0.135-0.028h1.155c0.107,0,0.194,0.087,0.194,0.194v1.166h1.176
	c0.107,0,0.194,0.087,0.194,0.194L7.398,11.573L7.398,11.573z M18.8,8.066c0.565,0,1.023,0.458,1.023,1.023
	c0,0.565-0.458,1.023-1.023,1.023c-0.565,0-1.023-0.458-1.023-1.023C17.777,8.524,18.235,8.066,18.8,8.066z M17.123,11.696
	c-0.565,0-1.023-0.458-1.023-1.023c0-0.565,0.458-1.023,1.023-1.023c0.565,0,1.023,0.458,1.023,1.023
	C18.145,11.238,17.687,11.696,17.123,11.696z M18.8,13.24c-0.565,0-1.023-0.458-1.023-1.023c0-0.565,0.458-1.023,1.023-1.023
	c0.565,0,1.023,0.458,1.023,1.023C19.822,12.782,19.364,13.24,18.8,13.24z M20.477,11.696c-0.565,0-1.023-0.458-1.023-1.023
	c0-0.565,0.458-1.023,1.023-1.023s1.023,0.458,1.023,1.023C21.499,11.238,21.041,11.696,20.477,11.696z"/>
</svg>
