<?xml version="1.0" encoding="utf-8"?>
<!-- Generator: Adobe Illustrator 17.0.0, SVG Export Plug-In . SVG Version: 6.00 Build 0)  -->
<!DOCTYPE svg PUBLIC "-//W3C//DTD SVG 1.1//EN" "http://www.w3.org/Graphics/SVG/1.1/DTD/svg11.dtd">
<svg version="1.1" id="圖層_1" xmlns="http://www.w3.org/2000/svg" xmlns:xlink="http://www.w3.org/1999/xlink" x="0px" y="0px"
	 width="24px" height="24px" viewBox="0 0 24 24" enable-background="new 0 0 24 24" xml:space="preserve">
<path fill="#3984FF" stroke="#FFFFFF" stroke-width="0.25" d="M18.76,4.477H5.24C2.97,4.483,1.131,6.293,1.125,8.528v7.049
	c0.063,2.194,1.885,3.941,4.115,3.947h13.52c2.27-0.006,4.108-1.816,4.115-4.051V8.481C22.843,6.265,21.012,4.483,18.76,4.477z
	 M15.645,12.463l-5.737,3.264c-0.266,0.147-0.603,0.054-0.752-0.208c-0.044-0.078-0.069-0.166-0.071-0.255V8.736
	c0.006-0.3,0.259-0.539,0.564-0.532c0.091,0.002,0.18,0.026,0.259,0.07l5.737,3.264c0.263,0.152,0.351,0.486,0.196,0.745
	c-0.048,0.08-0.115,0.146-0.196,0.193L15.645,12.463L15.645,12.463z"/>
</svg>
